<svg width="165" height="24" viewBox="0 0 165 24" fill="none" xmlns="http://www.w3.org/2000/svg">
<path d="M11.044 23.6122C8.82533 23.6122 6.92667 23.1429 5.348 22.2042C3.76933 21.2656 2.55333 19.9322 1.7 18.2042C0.868 16.4762 0.452 14.4176 0.452 12.0282C0.452 10.2362 0.686667 8.63622 1.156 7.22822C1.64667 5.79888 2.34 4.59355 3.236 3.61222C4.15333 2.60955 5.27333 1.84155 6.596 1.30822C7.91867 0.753551 9.40133 0.476217 11.044 0.476217C12.3667 0.476217 13.6253 0.668217 14.82 1.05222C16.0147 1.41488 17.0493 1.95888 17.924 2.68422C18.2013 2.89755 18.3827 3.14288 18.468 3.42022C18.5747 3.67622 18.5853 3.93222 18.5 4.18822C18.436 4.42288 18.308 4.62555 18.116 4.79622C17.9453 4.94555 17.732 5.02022 17.476 5.02022C17.22 5.02022 16.932 4.91355 16.612 4.70022C15.844 4.08155 15.0013 3.62289 14.084 3.32422C13.1667 3.02555 12.1747 2.87622 11.108 2.87622C9.42267 2.87622 7.99333 3.23888 6.82 3.96422C5.64667 4.66822 4.76133 5.70288 4.164 7.06822C3.56667 8.43355 3.268 10.0869 3.268 12.0282C3.268 13.9696 3.56667 15.6336 4.164 17.0202C4.76133 18.3856 5.64667 19.4309 6.82 20.1562C7.99333 20.8602 9.42267 21.2122 11.108 21.2122C12.1533 21.2122 13.1453 21.0629 14.084 20.7642C15.0227 20.4442 15.8867 19.9749 16.676 19.3562C16.996 19.1429 17.284 19.0469 17.54 19.0682C17.796 19.0682 18.0093 19.1429 18.18 19.2922C18.3507 19.4416 18.468 19.6336 18.532 19.8682C18.6173 20.1029 18.6173 20.3482 18.532 20.6042C18.468 20.8602 18.308 21.0842 18.052 21.2762C17.156 22.0442 16.1 22.6309 14.884 23.0362C13.6893 23.4202 12.4093 23.6122 11.044 23.6122ZM24.1593 23.3242C23.7326 23.3242 23.4019 23.2069 23.1673 22.9722C22.9326 22.7162 22.8153 22.3749 22.8153 21.9482V1.98022C22.8153 1.53222 22.9219 1.19088 23.1353 0.956217C23.3699 0.721551 23.7006 0.604218 24.1273 0.604218C24.5539 0.604218 24.8739 0.721551 25.0873 0.956217C25.3219 1.19088 25.4393 1.53222 25.4393 1.98022V21.0202H35.9353C36.3193 21.0202 36.6179 21.1269 36.8313 21.3402C37.0446 21.5322 37.1513 21.8096 37.1513 22.1722C37.1513 22.5349 37.0446 22.8229 36.8313 23.0362C36.6179 23.2282 36.3193 23.3242 35.9353 23.3242H24.1593ZM41.5023 23.5482C41.0756 23.5482 40.7449 23.4309 40.5103 23.1962C40.2969 22.9402 40.1903 22.5989 40.1903 22.1722V1.91622C40.1903 1.46822 40.2969 1.12688 40.5103 0.892218C40.7449 0.657551 41.0756 0.540218 41.5023 0.540218C41.9289 0.540218 42.2489 0.657551 42.4623 0.892218C42.6969 1.12688 42.8143 1.46822 42.8143 1.91622V22.1722C42.8143 22.5989 42.7076 22.9402 42.4943 23.1962C42.2809 23.4309 41.9503 23.5482 41.5023 23.5482ZM49.657 23.5482C49.2517 23.5482 48.9423 23.4416 48.729 23.2282C48.5157 22.9936 48.409 22.6629 48.409 22.2362V1.88422C48.409 1.45755 48.5157 1.12688 48.729 0.892218C48.9423 0.657551 49.2197 0.540218 49.561 0.540218C49.9023 0.540218 50.1477 0.604218 50.297 0.732218C50.4677 0.838884 50.6597 1.04155 50.873 1.34022L64.825 19.9322H64.057V1.82022C64.057 1.41488 64.1637 1.10555 64.377 0.892218C64.5903 0.657551 64.8997 0.540218 65.305 0.540218C65.689 0.540218 65.977 0.657551 66.169 0.892218C66.3823 1.10555 66.489 1.41488 66.489 1.82022V22.2682C66.489 22.6736 66.393 22.9936 66.201 23.2282C66.0303 23.4416 65.7743 23.5482 65.433 23.5482C65.113 23.5482 64.857 23.4842 64.665 23.3562C64.473 23.2282 64.2703 23.0256 64.057 22.7482L50.137 4.15622H50.873V22.2362C50.873 22.6629 50.7663 22.9936 50.553 23.2282C50.3397 23.4416 50.041 23.5482 49.657 23.5482ZM73.4085 23.5482C72.9818 23.5482 72.6512 23.4309 72.4165 23.1962C72.2032 22.9402 72.0965 22.5989 72.0965 22.1722V1.91622C72.0965 1.46822 72.2032 1.12688 72.4165 0.892218C72.6512 0.657551 72.9818 0.540218 73.4085 0.540218C73.8352 0.540218 74.1552 0.657551 74.3685 0.892218C74.6032 1.12688 74.7205 1.46822 74.7205 1.91622V22.1722C74.7205 22.5989 74.6138 22.9402 74.4005 23.1962C74.1872 23.4309 73.8565 23.5482 73.4085 23.5482ZM90.0753 23.6122C87.8566 23.6122 85.9579 23.1429 84.3793 22.2042C82.8006 21.2656 81.5846 19.9322 80.7313 18.2042C79.8993 16.4762 79.4833 14.4176 79.4833 12.0282C79.4833 10.2362 79.7179 8.63622 80.1873 7.22822C80.6779 5.79888 81.3713 4.59355 82.2673 3.61222C83.1846 2.60955 84.3046 1.84155 85.6273 1.30822C86.9499 0.753551 88.4326 0.476217 90.0753 0.476217C91.3979 0.476217 92.6566 0.668217 93.8513 1.05222C95.0459 1.41488 96.0806 1.95888 96.9553 2.68422C97.2326 2.89755 97.4139 3.14288 97.4993 3.42022C97.6059 3.67622 97.6166 3.93222 97.5312 4.18822C97.4673 4.42288 97.3393 4.62555 97.1473 4.79622C96.9766 4.94555 96.7633 5.02022 96.5073 5.02022C96.2513 5.02022 95.9633 4.91355 95.6433 4.70022C94.8753 4.08155 94.0326 3.62289 93.1153 3.32422C92.1979 3.02555 91.2059 2.87622 90.1393 2.87622C88.4539 2.87622 87.0246 3.23888 85.8513 3.96422C84.6779 4.66822 83.7926 5.70288 83.1953 7.06822C82.5979 8.43355 82.2993 10.0869 82.2993 12.0282C82.2993 13.9696 82.5979 15.6336 83.1953 17.0202C83.7926 18.3856 84.6779 19.4309 85.8513 20.1562C87.0246 20.8602 88.4539 21.2122 90.1393 21.2122C91.1846 21.2122 92.1766 21.0629 93.1153 20.7642C94.0539 20.4442 94.9179 19.9749 95.7073 19.3562C96.0273 19.1429 96.3153 19.0469 96.5713 19.0682C96.8273 19.0682 97.0406 19.1429 97.2113 19.2922C97.3819 19.4416 97.4993 19.6336 97.5633 19.8682C97.6486 20.1029 97.6486 20.3482 97.5633 20.6042C97.4993 20.8602 97.3393 21.0842 97.0833 21.2762C96.1873 22.0442 95.1313 22.6309 93.9153 23.0362C92.7206 23.4202 91.4406 23.6122 90.0753 23.6122ZM103.863 23.6122C102.967 23.6122 102.284 23.3776 101.815 22.9082C101.345 22.4389 101.111 21.7456 101.111 20.8282V3.38822C101.111 2.44955 101.345 1.73488 101.815 1.24422C102.284 0.732217 102.903 0.476217 103.671 0.476217C104.353 0.476217 104.887 0.604218 105.271 0.860218C105.655 1.11622 106.081 1.54288 106.551 2.14022L116.694 14.8122H115.799V3.22822C115.799 2.33222 116.023 1.64955 116.471 1.18022C116.94 0.710884 117.623 0.476217 118.519 0.476217C119.415 0.476217 120.087 0.710884 120.535 1.18022C121.004 1.64955 121.239 2.33222 121.239 3.22822V20.9562C121.239 21.7669 121.025 22.4176 120.599 22.9082C120.172 23.3776 119.596 23.6122 118.871 23.6122C118.145 23.6122 117.569 23.4842 117.142 23.2282C116.737 22.9509 116.3 22.5242 115.831 21.9482L105.687 9.24422H106.583V20.8282C106.583 21.7456 106.348 22.4389 105.879 22.9082C105.431 23.3776 104.759 23.6122 103.863 23.6122ZM128.305 23.6122C127.366 23.6122 126.641 23.3562 126.129 22.8442C125.617 22.3109 125.361 21.5749 125.361 20.6362V3.74022C125.361 2.78022 125.617 2.04422 126.129 1.53222C126.662 1.02022 127.398 0.764217 128.337 0.764217H136.209C138.769 0.764217 140.742 1.42555 142.128 2.74822C143.537 4.04955 144.241 5.85222 144.241 8.15622C144.241 10.4602 143.537 12.2736 142.128 13.5962C140.742 14.8976 138.769 15.5482 136.209 15.5482H131.249V20.6362C131.249 21.5749 131.003 22.3109 130.513 22.8442C130.022 23.3562 129.286 23.6122 128.305 23.6122ZM131.249 11.0362H135.185C136.294 11.0362 137.147 10.8016 137.745 10.3322C138.342 9.84155 138.641 9.11622 138.641 8.15622C138.641 7.17488 138.342 6.44955 137.745 5.98022C137.147 5.51088 136.294 5.27622 135.185 5.27622H131.249V11.0362ZM155.37 23.6762C154.516 23.6762 153.62 23.6122 152.682 23.4842C151.764 23.3776 150.89 23.2069 150.058 22.9722C149.226 22.7376 148.479 22.4602 147.818 22.1402C147.242 21.8629 146.836 21.5002 146.602 21.0522C146.367 20.5829 146.282 20.0922 146.346 19.5802C146.41 19.0682 146.591 18.6202 146.89 18.2362C147.188 17.8309 147.583 17.5642 148.074 17.4362C148.564 17.2869 149.119 17.3509 149.738 17.6282C150.548 18.0122 151.466 18.3109 152.49 18.5242C153.514 18.7376 154.474 18.8442 155.37 18.8442C156.778 18.8442 157.759 18.6629 158.314 18.3002C158.89 17.9162 159.178 17.4469 159.178 16.8922C159.178 16.4016 158.975 16.0069 158.57 15.7082C158.186 15.4096 157.492 15.1536 156.49 14.9402L152.746 14.1402C150.698 13.7136 149.172 12.9669 148.17 11.9002C147.167 10.8336 146.666 9.45755 146.666 7.77222C146.666 6.66288 146.89 5.66022 147.338 4.76422C147.807 3.84688 148.458 3.06822 149.29 2.42822C150.143 1.78822 151.146 1.29755 152.298 0.956217C153.471 0.593551 154.772 0.412218 156.202 0.412218C157.311 0.412218 158.431 0.540218 159.562 0.796217C160.714 1.03088 161.706 1.39355 162.538 1.88422C163.028 2.14022 163.38 2.49222 163.594 2.94022C163.807 3.38822 163.892 3.85755 163.85 4.34822C163.807 4.81755 163.636 5.23355 163.338 5.59622C163.06 5.95889 162.676 6.20422 162.186 6.33222C161.716 6.43888 161.151 6.35355 160.49 6.07622C159.871 5.79888 159.167 5.59622 158.378 5.46822C157.61 5.31889 156.863 5.24422 156.138 5.24422C155.348 5.24422 154.676 5.34022 154.122 5.53222C153.567 5.70288 153.14 5.95888 152.842 6.30022C152.564 6.64155 152.426 7.03622 152.426 7.48422C152.426 7.93222 152.607 8.31622 152.97 8.63622C153.354 8.93488 154.047 9.19088 155.05 9.40422L158.762 10.2042C160.831 10.6522 162.378 11.3882 163.402 12.4122C164.426 13.4362 164.938 14.7696 164.938 16.4122C164.938 17.5216 164.714 18.5242 164.266 19.4202C163.818 20.3162 163.178 21.0842 162.346 21.7242C161.514 22.3429 160.511 22.8229 159.338 23.1642C158.164 23.5056 156.842 23.6762 155.37 23.6762Z" fill="#333333"/>
</svg>
